inDegrees=no
num_controls=7
num_derivatives=13
num_iterations=160
num_multipliers=7
num_parameters=0
num_slacks=7
num_states=26
objective=6.159262
objective_accelerations=0.745214
objective_balance=0.031892
objective_effort=0.669521
objective_height=4.688165
objective_ligament=0.024469
solver_duration=1793.066642
status=Solve_Succeeded
success=true
DataType=double
version=3
OpenSimVersion=4.4-2022-07-23-0e9fedc
endheader
time	/jointset/ground_pelvis/pelvis_tilt/value	/jointset/ground_pelvis/pelvis_tx/value	/jointset/ground_pelvis/pelvis_ty/value	/jointset/hip_l/hip_flexion_l/value	/jointset/hip_l/hip_adduction_l/value	/jointset/hip_l/hip_rotation_l/value	/jointset/back/lumbar_extension/value	/jointset/patellofemoral_l/patellar_flexion_l/value	/jointset/knee_l/knee_flexion_l/value	/jointset/knee_l/knee_adduction_l/value	/jointset/knee_l/knee_rotation_l/value	/jointset/ankle_l/ankle_angle_l/value	/jointset/subtalar_l/subtalar_angle_l/value	/jointset/ground_pelvis/pelvis_tilt/speed	/jointset/ground_pelvis/pelvis_tx/speed	/jointset/ground_pelvis/pelvis_ty/speed	/jointset/hip_l/hip_flexion_l/speed	/jointset/hip_l/hip_adduction_l/speed	/jointset/hip_l/hip_rotation_l/speed	/jointset/back/lumbar_extension/speed	/jointset/patellofemoral_l/patellar_flexion_l/speed	/jointset/knee_l/knee_flexion_l/speed	/jointset/knee_l/knee_adduction_l/speed	/jointset/knee_l/knee_rotation_l/speed	/jointset/ankle_l/ankle_angle_l/speed	/jointset/subtalar_l/subtalar_angle_l/speed	/forceset/tau_hip_flexion_l	/forceset/tau_hip_adduction_l	/forceset/tau_hip_rotation_l	/forceset/tau_knee_flexion_l	/forceset/tau_ankle_angle_l	/forceset/tau_subtalar_angle_l	/forceset/tau_lumbar_extension	lambda_cid13_p0	lambda_cid13_p1	lambda_cid13_p2	lambda_cid13_p3	lambda_cid13_p4	lambda_cid13_p5	lambda_cid14_p0	/jointset/ground_pelvis/pelvis_tilt/accel	/jointset/ground_pelvis/pelvis_tx/accel	/jointset/ground_pelvis/pelvis_ty/accel	/jointset/hip_l/hip_flexion_l/accel	/jointset/hip_l/hip_adduction_l/accel	/jointset/hip_l/hip_rotation_l/accel	/jointset/back/lumbar_extension/accel	/jointset/patellofemoral_l/patellar_flexion_l/accel	/jointset/knee_l/knee_flexion_l/accel	/jointset/knee_l/knee_adduction_l/accel	/jointset/knee_l/knee_rotation_l/accel	/jointset/ankle_l/ankle_angle_l/accel	/jointset/subtalar_l/subtalar_angle_l/accel	gamma_cid13_p0	gamma_cid13_p1	gamma_cid13_p2	gamma_cid13_p3	gamma_cid13_p4	gamma_cid13_p5	gamma_cid14_p0
0.5	-0.2121576817283731	-0.105581651832521	0.7632967739722386	1.186051600927046	-0.312515587073813	-0.09519078049745569	-0.8155897207174516	0.951347853037469	0.9513478530374619	-0.0522745755622633	-0.1745314914551189	0.04538215849306106	-0.004097280820984723	-0.4279697713456942	-0.2686263012788528	-0.5724489128116289	2.25831293617922	0.00971793726034184	0.4618582905529622	-0.8163504557429593	1.863025498676978	1.863025498676972	0.3144128193478311	0.0002079518853517371	0.1562703971074091	0.05769140281845883	-0.3550715100755913	0.001536965838000077	-0.008955868030118379	-0.2258028151767093	0.1693235318584952	0.05920475482625796	0.3769988957894711	10.33021137579892	-26.7759111866545	2.963011773064072	-19.11247318077841	-703.4264093888578	-77.28355071922003	-8.452886646735781	0.6812350442649774	1.034559614397553	-0.2431659807967052	-1.967125982053156	0.2252505484960217	-0.7239613331386896	2.33089546013058	-1.393630928690422	-1.393630928690407	-0.1708847258233676	-0.001539710236984019	-0.2158317717615737	0.1837456681706812	-2.410457806619938e-07	-1.996668926747819e-07	1.364026015676075e-06	1.37156227550962e-07	-2.904920477213264e-07	4.137048257522904e-07	-2.04980304570551e-07
0.51	-0.2164024905077225	-0.1082161694509864	0.7575613821107888	1.208533129113461	-0.3124081967511866	-0.09060776090367688	-0.8236362084178602	0.96990568498631	0.9699056849863235	-0.04914168188655574	-0.1745298213482249	0.04693318041580125	-0.003512604577638569	-0.420923756548218	-0.258278062701215	-0.5745028450645461	2.237701183078291	0.01173707226221478	0.4547499616108419	-0.7928828387837727	1.84828054459364	1.848280544593637	0.312086342299245	0.0001439419477253864	0.1538766321149391	0.05920012885166513	-0.3641083566155907	0.0009840783851582718	-0.00898189596842945	-0.2290819226590537	0.1710827324608838	0.05930623989501668	0.3850105440943297	10.52783532932161	-26.70341912730885	2.778782224194477	-19.14279732320157	-709.5541789805236	-77.11670553672751	-7.679880551895605	0.7264962934546596	1.034844618491574	-0.1675647746346752	-2.151956569826395	0.1867079694262534	-0.7038056264318001	2.364331647150731	-1.553941840768167	-1.553941840767783	-0.2755251704373304	-0.005938625302622129	-0.2597610947591728	0.1278191992247731	-1.584314610157835e-07	-4.859250395067912e-07	5.242313792791141e-07	-2.027075622894665e-09	-2.070540522981815e-07	2.747219835608094e-07	-1.657936783041959e-07
0.52	-0.2205747968199098	-0.1107472269558666	0.7518092393413908	1.230799788449723	-0.3122813224798603	-0.08609573198963898	-0.8314460925820112	0.9883082645558153	0.9883082645558101	-0.04603445217657443	-0.174528212738725	0.04845854224226519	-0.002914164448294661	-0.413469277912105	-0.2479342785617836	-0.5757990944013172	2.215339166148816	0.0136147269998008	0.447660154601407	-0.769029748491059	1.831975022805791	1.83197502280579	0.309280026208225	0.0001956524190060383	0.1511383778516881	0.06044418001803701	-0.3731452031555759	0.0004311909323683373	-0.009007923907287324	-0.2323610301414092	0.1728419330632828	0.05940772496383609	0.3930221923991927	10.72213727036587	-26.63179614431487	2.596349021076509	-19.21047350583394	-715.7567871525077	-76.99680080702181	-6.938717521424967	0.7629278119924693	1.033668726756221	-0.09162939756751146	-2.317178747762243	0.1969544956385395	-0.720256946601687	2.407990126836113	-1.705744469592625	-1.705744469592602	-0.2668525343101505	0.02160437154434521	-0.2847296259178599	0.1308106948037487	-6.622482889207899e-08	-7.75939473643603e-07	-3.904418275565435e-07	-1.544430023608992e-07	-1.193854151035422e-07	8.623305860291273e-08	-1.190863056062138e-07
0.53	-0.2246706893291342	-0.1131749358670988	0.7460479320044531	1.25283439986353	-0.3121359890199665	-0.08165740756357572	-0.8390156343559848	1.006540135382072	1.00654013538204	-0.04295469755060285	-0.1745269822928453	0.04995504177587687	-0.002304073621695393	-0.4056526089702546	-0.2376135214347447	-0.576333476069267	2.191304294201964	0.01543357897737192	0.4399801920287825	-0.7448328492290891	1.814148723028591	1.81414872302859	0.3066302878968393	5.897296201933814e-05	0.1481179436882687	0.0615400322024267	-0.3816669334113716	-0.0002519473169221664	-0.009087948217640088	-0.2359121916792587	0.1749139407421216	0.05935147082783102	0.4005559771030411	11.02048595152504	-26.50840267754494	2.403969355323525	-19.2898996914696	-721.7746594834274	-76.78842837994105	-6.235893917539968	0.7995207643035533	1.030329643181083	-0.01502268134776446	-2.488470264648184	0.1718318377944345	-0.7956114222869509	2.432403387136422	-1.858616733073234	-1.858616733073172	-0.2703284765449065	-0.03016825807907974	-0.3172925720999552	0.09413142036335226	-3.188559781695215e-08	-8.707066993756066e-07	-7.170708218989047e-07	-2.112999564668179e-07	-8.223897260987682e-08	2.92900891060573e-08	-1.024009109807925e-07
0.54	-0.2286867182831469	-0.1154996271195598	0.740285144824848	1.27462029678856	-0.3119729707825047	-0.07729663186517288	-0.8463418344250885	1.024586234410265	1.024586234410273	-0.03990269910707705	-0.1745268914720994	0.05142001851574522	-0.001683992485231049	-0.3974965668674887	-0.2273307468075365	-0.5760950629348053	2.165596268395068	0.01715168251407187	0.4321504090683753	-0.7203614075167547	1.794820663199805	1.794820663199804	0.3037287897057538	-3.227264531756216e-05	0.1448338191030076	0.06244224199108508	-0.3901886636671667	-0.0009350855662158155	-0.009167972527154027	-0.2394633532170966	0.1769859484209574	0.05929521669182394	0.4080897618068892	11.31324729631816	-26.38778681731593	2.216321622684882	-19.3925068781348	-727.8880541011541	-76.60234051781067	-5.572504708268426	0.8308024441756737	1.026072226790088	0.06292956291475206	-2.65180951977085	0.1768048074642138	-0.750221024158518	2.46289861690903	-2.006096479909767	-2.006096479909752	-0.3172045102501473	0.03069114147389221	-0.3374677102862493	0.09208221565729184	-6.156987428493331e-08	-7.494557370852665e-07	-3.930977088018664e-07	-1.624320897882999e-07	-1.009894263811195e-07	1.178873256512066e-07	-1.189313218824603e-07
0.55	-0.2326195401547998	-0.1177217786309577	0.7345285949988806	1.296140907532983	-0.3117933853366844	-0.07301415187078228	-0.8534221080454928	1.0424317227177	1.042431722717711	-0.03688164148947259	-0.1745271726389532	0.05285087628777713	-0.001055977719115155	-0.3890157209632332	-0.2171153189720857	-0.5750865732668102	2.138260859511403	0.01875054592229492	0.4242976959135688	-0.6956640195350628	1.774039549716909	1.774039549716916	0.3004699088348624	-2.976620020889241e-05	0.1413009400675777	0.06313276867958868	-0.3984403245509673	-0.001628414760039544	-0.009300723714606026	-0.2427473571041324	0.1785323795681669	0.0591659060159244	0.4152520203722036	11.44766260507624	-26.21428891968522	2.027750198529228	-19.2664938879279	-733.7035916138565	-76.32649963680052	-4.949183034573923	0.8645244892769994	1.016886381514269	0.1390357741274938	-2.814173894534639	0.1493181040984134	-0.8100882433267742	2.477553443216407	-2.149710478543003	-2.149710478541632	-0.3323019769513469	-0.01585904777655673	-0.3667542243454869	0.053482144098502	-7.280404760808045e-08	-6.472848180664165e-07	-2.069812464363253e-07	-1.322645172641294e-07	-1.049437284070999e-07	1.610730594250154e-07	-1.218513452983396e-07
0.5600000000000001	-0.2364659938022766	-0.1198422542000826	0.72878597549067	1.317380210724189	-0.3115982330574615	-0.0688116573643594	-0.860254528875199	1.0600622815511	1.060062281551105	-0.03389358710089457	-0.1745276066300209	0.05424529402462153	-0.0004218688363840477	-0.3802229220299017	-0.2069955583529376	-0.5733089993834453	2.109334757752931	0.02026504919438855	0.4161533114713683	-0.6707908493766808	1.751834768391467	1.751834768391483	0.297128143906268	-6.28375073342e-05	0.1375458120651799	0.06366106531415805	-0.4066919854347577	-0.002321743953818888	-0.009433474902360763	-0.2460313609911811	0.1800788107153838	0.05903659534007647	0.4224142789375211	11.57579979945312	-26.04512674090591	1.846077627681643	-19.1660575400627	-739.6227366013542	-76.08818176088705	-4.366428472751958	0.8931930499909848	1.006938783529554	0.216746405988744	-2.969948094731972	0.1599327802382421	-0.8085552816373913	2.49805505224713	-2.290830048419042	-2.290830048418929	-0.3337813217907573	0.02357559102700532	-0.3819175036798412	0.05963620487039913	-6.189809715742748e-08	-5.680099509733541e-07	-1.862927649485753e-07	-1.245372977251752e-07	-9.114264833876613e-08	1.497649898732175e-07	-1.084389037312732e-07
0.5700000000000001	-0.2402230925326823	-0.1218620755850797	0.7230649674780593	1.338322491588259	-0.3113882978738201	-0.06469166953386213	-0.8668374676158329	1.077463800860426	1.077463800860424	-0.03093949731430261	-0.1745282230964772	0.05560115628791294	0.0002168021332128256	-0.3711542013461276	-0.1969904024518231	-0.570764208662174	2.0788653154988	0.02170284548221725	0.4078131573035684	-0.6457850536770077	1.728239854735605	1.728239854735639	0.2936587425295896	-6.175478401616665e-05	0.1335975402825029	0.06404268540059246	-0.4144472028166913	-0.003098241724109709	-0.00959309719934473	-0.2493495703180375	0.1816023672903146	0.05876195092737736	0.4290714263557653	11.70734200444578	-25.81639206010449	1.658277277763547	-18.98416550640103	-745.2258781032119	-75.75027304555931	-3.824322305733369	0.9200927677358104	0.9940273893085119	0.2925879094979746	-3.123869184165895	0.1329233141535488	-0.8514955716447269	2.503618589825368	-2.428187664533716	-2.428187664530953	-0.3582950334015212	-0.01183619005944452	-0.4056751212316989	0.02296326007766974	-5.178999971699088e-08	-4.97541583385166e-07	-1.700651421774947e-07	-1.17839047513355e-07	-7.799446501298619e-08	1.381091913900755e-07	-9.615974562359386e-08
